<svg xmlns="http://www.w3.org/2000/svg" viewBox="0 0 640 480" focusable="false" class="chakra-icon chakra-icon css-8ar2mh"><path fill="#194d91" d="M640.4,85.5V0h-.4v84.8c.2.2.4.5.4.7Z"></path><path fill="#fff" d="M632.5,31.4c-5-5-8.7,0-14.5,9.9-2.9,5.4-6.2,13.6-9.1,19-3.3,4.5-6.2,8.7-9.1,14.5-5.4,5.8-11.6,16.1-11.6,24-2.9,3.7-3.3,6.2-6.2,7.9-1.2-.8-3.3-1.2-5.4,1.2-.8,3.3-2.9,5-2.9,7.4-6.2-2.5-10.7,2.9-14,13.2-2.1.8-7,2.5-7.4,4.5-2.5,1.7-3.3,4.5-5.8,6.2-5.4.8-6.2,6.6-9.9,10.3-3.3,1.2-5.8,5.4-7.9,9.5-4.5,0-8.7,5.4-10.7,9.9-7.9,5-10.7,8.3-13.2,14.9-5.8.8-12.8,3.7-16.5,10.7-6.2,4.1-13.2,10.3-16.1,17.4-6.6,4.1-10.7,10.7-17.4,21.5-7-3.3-14.9-3.3-22.7,0-5-.8-9.5-2.1-14.5-2.9-1.2-1.1-2-2.2-2.3-3.4,0,1.5.8,3,2.3,4.6,5,.8,9.5,1.7,14.5,2.9,7.9-3.3,15.7-3.3,22.7,0,6.6-10.3,10.7-16.9,17.4-21.5,2.9-6.6,9.9-13.2,16.1-17.4,3.3-7,10.7-10.7,16.5-10.7,2.5-6.6,5.4-10.3,13.2-14.9,2.1-4.5,6.6-9.9,10.7-9.9,2.1-4.1,4.5-8.3,7.9-9.5,3.3-3.3,4.1-9.5,9.9-10.3,2.5-1.7,3.3-4.1,5.8-6.2,0-1.7,5.4-3.3,7.4-4.5,3.3-10.3,7.9-15.7,14-13.2,0-2.1,2.1-4.1,2.9-7.4,2.1-2.5,4.1-1.7,5.4-1.2,2.9-1.7,3.3-4.1,6.2-7.9,0-7.9,6.2-18.2,11.6-24,2.9-5.8,5.8-9.9,9.1-14.5,2.9-5.4,6.6-13.6,9.1-19,5.8-9.9,9.5-14.5,14.5-9.9.8,1,1.3,2.1,1.4,3.5.2-1.9-.3-3.5-1.4-4.7Z"></path><path fill="#fff" d="M624.4,68.6c0,.4-.1.8-.2,1.2,8,1.1,12.2,4.1,12.4,10.7.2-7.5-3.4-10.7-12.2-11.9Z"></path><path fill="#fff" d="M372.2,98.3c-19.8-2.5-33.9,0-47.5,7.4-7.4,4.5-14,9.9-21.5,14-7.9,4.1-14.5,22.7-21.9,33.9-2.4,5.2-3.4,8.9-3.4,11.4.3-2.4,1.3-5.8,3.4-10.2,7-11.2,14-29.7,21.9-33.9,7.4-4.5,14-9.9,21.5-14,13.6-7.4,27.7-9.9,47.5-7.4,16.1,0,35.1,7.9,48.3,17.4,2.1,4.3,3.5,8.5,4.4,12.6-.9-4.5-2.3-9.1-4.4-13.8-13.2-9.5-32.2-17.4-48.3-17.4Z"></path><path fill="#fff" d="M323.2,251.2c28.1.1,50.5-10.7,71.8-20.7-.3,0-.7.2-1,.3-21,9.9-42.8,20.5-70.8,20.4Z"></path><path fill="#fff" d="M638.7,83.5c-.4-.8-1.2-1.6-2-2.5,0,.3,0,.5,0,.8.7.7,1.3,1.4,1.6,2.1.8,0,.8.4.8.8-.3-.3-.6-.6-.8-.8-.7-.7-1.1-1.3-1.6-2,0,.1,0,.2,0,.4.8.8,1.2,1.7,2.1,2.5.3.3.6.6.8.8v9.9c.1-.1.3-.3.4-.4v5.8c-.1-.4-.3-.9-.4-1.3v7.6c.2-.1.3-.2.5-.4v-21.9c-.1-.2-.3-.3-.5-.5-.3-.3-.6-.6-.8-.8Z"></path><path fill="#fff" d="M23.3,64.8c1.2,4.2,1.1,7.7,1.9,10.5-.6-2.9-.6-6.5-1.9-10.5Z"></path><path fill="#fff" d="M41.7.4l6.2,12.4c1.7,2.9,2.9,5.8,4.5,8.7,2.9,4.5,1.7,7.9,5,12.4,4.5,8.7,13.6,19.4,19,30.2,2.9,2.1,5.4,4.1,8.3,6.2,3.7,4.1,7,8.3,10.3,12.4,4.5,3.3,8.7,6.2,12.8,9.5,1.7,3.3,2.5,3.7,4.5,7,1.7,0,4.5-.4,7,1.7,2.5,2.5,5,7.9,6.6,9.5,4.1,2.1,6.2,5.4,10.3,7.4,2.9,4.1,8.7,6.6,11.6,10.7,5.8,4.5,11.6,10.3,17.4,15.3,4.5,6.6,6.6,14,14,13.2,9.5,2.9,12.4,8.7,14.5,14.5v-1.2c-2.1-5.8-5-11.6-14.5-14.5-7.9.8-9.5-6.6-14-13.2-5.8-5-11.6-10.7-17.4-15.3-2.9-4.1-8.7-6.6-11.6-10.7-4.1-2.1-6.2-5.4-10.3-7.4-1.2-1.7-3.7-7-6.6-9.5-2.5-2.1-5-1.7-7-1.7-2.1-3.3-2.5-3.7-4.5-7-4.5-3.3-8.7-6.6-12.8-9.5-3.3-4.1-6.6-8.3-10.3-12.4-2.9-2.1-5.4-4.1-8.3-6.2-5.4-10.7-14.5-21.5-19-30.2-3.3-4.5-2.1-7.9-5-12.4l-4.5-8.7c-2.1-3.7-3.7-7.4-5.8-11.2-.4,0-.8-.4-1.2-.4h-3.7c-.2.1-.4.3-.5.4h5.1Z"></path><path fill="#fff" d="M288.5,185.5c0,0,0-.2-.1-.3-.2,1.2-.4,2.4-.5,3.6-4.7,3.6-6.9,8.6-5.9,15.1-.4-5.9,1.5-10.4,5.9-13.8.2-1.1.4-2.2.6-3.4,0-.1-.1-.2-.2-.3,0-.3.1-.5.2-.8Z"></path><path fill="#fff" d="M277.2,228.5c-3.7-2.1-6.6-3.7-10.3-5.4-5.8-1.7-9.9-.8-13.6.8-5.4-6.2-11.2-7-16.5-6.2-3.7-2.9-7-6.2-10.7-9.1-.8-11.2-6.6-19.4-17.8-20.2-4.5-3.3-9.5-5-14.5-8.7v1.2c5,3.3,9.9,5,14.5,8.7,11.2.8,16.9,8.7,17.8,20.2,3.7,2.9,7,6.2,10.7,9.1,5.4-.8,11.2-.4,16.5,6.2,3.7-1.7,7.9-2.1,13.6-.8,3.7,1.7,6.6,3.3,10.3,5.4,2.5-.4,5-1.2,7.4-1.2.7-2.8.9-5.4.8-7.7,0,2-.3,4.1-.8,6.5-2.5.4-5,1.2-7.4,1.2Z"></path><rect fill="#fff" width=".4" height="480"></rect><path fill="#fff" d="M291.2,167.7h-2.1c.4.2.7.7.9,1.2h1c0-.4.1-.8.2-1.2Z"></path><path fill="#fff" d="M373.9,193c-41.2,2-80,2.5-85.2-7.2,0,.3-.1.6-.2.9,4.5,10,43.7,10,85.4,7.5,7.8-1.9,14.9-7.4,13.6-11.7-.3,4.1-6.5,8.8-13.6,10.5Z"></path><path fill="#fff" d="M290.3,171.5c0,3.3-1,8.1-1.7,12.6.9-3.3,1.4-6.7,1.8-10,0-1,0-1.9,0-2.7Z"></path><path fill="#fff" d="M280.8,165.4c-.4,1.8.4,3.2,3.3,3.8.8-.2,1.7-.6,2.6-1-3.8-.1-5.5-1.2-5.9-2.7Z"></path><path fill="#fff" d="M39.6,75.8c.8,2.1,1.5,4,2.2,5.9-.7-1.9-1.4-3.8-2.2-5.9Z"></path><path fill="#fff" d="M426.4,150.8c0,.3,0,.6,0,.9.7,4.7,1.2,9.3,1.2,13.9,0-5-.4-9.9-1.2-14.8Z"></path><path fill="#fff" d="M65.2,112.5c0-1.2.3-2.6.8-4.7-.2-.9-.5-1.8-.8-2.7.1.5.3,1,.4,1.4-.6,2.9-.7,4.6-.4,5.9Z"></path><path fill="#fff" d="M315,245.7c-16.3-.1-27.5-4.7-30-16.8,0,.2-.2.5-.2.7,3,11.6,14.2,16,30.2,16.2Z"></path><path fill="#fff" d="M239.4,312.6c16.7,48.2,29.6,108.3,25.3,158.8-.7,2.9-1.3,5.8-2,8.6h.5c.6-2.5,1.2-5.1,1.8-7.7,4.3-51-8.9-111.6-25.8-159.7Z"></path><path fill="#fff" d="M153.9,227.6c-.3-1-.5-1.9-.6-2.8-.1-1.5-.6-2.9-1.2-4.1.4.9.7,1.8.8,2.9.1,1.3.5,2.6,1.1,4Z"></path><path fill="#fff" d="M22.7,62.8c0,.2.1.4.2.6-2-6.3-4.1-5.1,3.9-15.5,5-6.2,8.3-9.9,14.5-9.9-6.2,0-9.5,3.7-14.9,8.7-8.3,10.7-6.2,9.1-3.7,16.1Z"></path><path fill="#fff" d="M636.6,81.8s0,0,0,0c.6.7,1,1.3,1.6,2-.3-.7-1-1.4-1.6-2.1Z"></path><path fill="#fff" d="M634.2,112.8c1.7-1.7,3.3-3.3,5-5.4-1.7,1.7-3.3,3.7-5,5.4Z"></path><path fill="#fff" d="M290.4,174.2c.2-1.8.4-3.5.7-5.2h-1c.2.7.3,1.5.3,2.5,0,.8.1,1.7,0,2.7Z"></path><path fill="#fff" d="M430.5,478.9c0-2.1,2.1-4.1,2.1-6.2,3.7-55.4,19.8-92.1,30.2-139.7,1.7-7.9,3.7-15.3,2.9-18.6,12.4-8.3,24.4-13.6,32.6-28.5,18.2-13.6,30.2-26.4,32.2-40.5,5.8-6.6,20.2-5.4,20.2-18.6,6.6-6.6,9.9-11.6,11.2-19,8.7-11.6,21.1-24.4,21.9-32.2,12-9.1,20.2-15.3,15.7-24.8,7-3.3,11.2-10.3,9.1-17.4,5.4-6.6,15.7-7,19-13.2,2.1-2.1,4.1-5,6.6-7.4,1.7-2.1,3.3-3.7,5-5.4h0c.1-.1.3-.2.4-.3v-7.6c-.2-.9-.4-1.9-.4-3.2s.2-.5.4-.8v-9.9c-.3-.3-.6-.6-.8-.8-.8-.8-1.2-1.7-2.1-2.5,0-.1,0-.2,0-.4-.1-.2-.3-.3-.4-.5.1.1.3.3.4.4,0-.3,0-.6,0-.8,0,0,0,0,0,0,0-.1,0-.3,0-.4-.2-6.7-4.4-9.6-12.4-10.7,0-.4,0-.8.2-1.2,0,0-.1,0-.2,0,.8-7.4,4.1-16.1,6.2-24,2.1-3.2,3.3-6.1,3.5-8.5,0-1.3-.5-2.5-1.4-3.5-5-4.5-8.7,0-14.5,9.9-2.5,5.4-6.2,13.6-9.1,19-3.3,4.5-6.2,8.7-9.1,14.5-5.4,5.8-11.6,16.1-11.6,24-2.9,3.7-3.3,6.2-6.2,7.9-1.2-.4-3.3-1.2-5.4,1.2-.8,3.3-2.9,5.4-2.9,7.4-6.2-2.5-10.7,2.9-14,13.2-2.1,1.2-7.4,2.9-7.4,4.5-2.5,2.1-3.3,4.5-5.8,6.2-5.8.8-6.6,7-9.9,10.3-3.3,1.2-5.8,5.4-7.9,9.5-4.1,0-8.7,5.4-10.7,9.9-7.9,4.5-10.7,8.3-13.2,14.9-5.8,0-13.2,3.7-16.5,10.7-6.2,4.1-13.2,10.7-16.1,17.4-6.6,4.5-10.7,11.2-17.4,21.5-7-3.3-14.9-3.3-22.7,0-5-1.2-9.5-2.1-14.5-2.9-1.6-1.6-2.3-3.1-2.3-4.6-.4-1.6,0-3.2,1.1-4.9v-9.5c2.1-7.4,4.1-14.9,6.2-22.7,3.5-8.5,4.9-16.6,5-24.5,0-4.6-.5-9.2-1.2-13.9,0-.3,0-.6,0-.9,0-.1,0-.2,0-.4.2-7.2,0-14-1.3-20.9-1-4.1-2.4-8.3-4.4-12.6-13.2-9.5-32.2-17.4-48.3-17.4-19.8-2.5-33.9,0-47.5,7.4-7.4,4.1-14,9.5-21.5,14-7.9,4.1-14.9,22.7-21.9,33.9-2,4.4-3.1,7.7-3.4,10.2,0,4.2,2.8,5.1,6.2,4.1-2.9-.5-3.7-2-3.3-3.8-1-3.8,6.3-10.1,10.4-10.1,19-2.1,39.7-1.2,69,16.9,9.1,5,18.2,9.9,26.4,7.4.6.8.9,1.8.8,2.7,1.3,4.4-5.8,9.9-13.6,11.7-41.7,2.5-80.9,2.5-85.4-7.5-.2,1.2-.4,2.3-.6,3.4-4.4,3.4-6.3,7.9-5.9,13.8.1.9.3,1.8.6,2.7,1.5,4.2,3,8.7,2.9,14.2,0,2.4-.2,4.9-.8,7.7-2.5,0-5,.8-7.4,1.2-3.7-2.1-6.6-3.7-10.3-5.4-5.8-1.2-9.9-.8-13.6.8-5.4-6.6-11.2-7-16.5-6.2-3.7-2.9-7-6.2-10.7-9.1-.8-11.6-6.6-19.4-17.8-20.2-4.5-3.7-9.5-5.4-14.5-8.7v-1.2s0,0,0,0v-8.3c-2.1-5.8-5-11.6-14.5-14.5-7.4.8-9.5-6.6-14-13.2-5.8-5-11.6-10.7-17.4-15.3-2.9-4.1-8.7-6.6-11.6-10.7-4.1-2.1-6.2-5.4-10.3-7.4-1.7-1.7-4.1-7-6.6-9.5-2.5-2.1-5.4-1.7-7-1.7-2.1-3.3-2.9-3.7-4.5-7-4.1-3.3-8.3-6.2-12.8-9.5-3.3-4.1-6.6-8.3-10.3-12.4-2.9-2.1-5.4-4.1-8.3-6.2-5.4-10.7-14.5-21.5-19-30.2-3.3-4.5-2.1-7.9-5-12.4-1.7-2.9-2.9-5.8-4.5-8.7L41.7.4h-5.1c-1.6,1.6-2,5.4-2,9.5,1.2,5,2.9,10.3,4.1,15.3,0,5,2.5,7.9,2.5,12.8-6.2,0-9.5,3.7-14.5,9.9-8,10.4-5.9,9.2-3.9,15.5.2.5.3.9.4,1.4,1.3,4.1,1.2,7.6,1.9,10.5.6,2.2,1.9,3.9,4.9,5.3,3.7,1.7,7-2.9,8.3-8.3.4,1.3.9,2.4,1.3,3.5.8,2.1,1.5,4,2.2,5.9,1,2.5,2,5.1,3.1,8.4,2.9,3.3,7,9.1,11.2,7.4,5.9,0,7.9,3.6,9.1,7.6.3.9.6,1.8.8,2.7-.5,2-.8,3.5-.8,4.7.6,2.2,2.3,3.1,4.9,6.5,2.1,2.9,3.7,7.4,5.4,8.7l3.7,3.7c5,6.2,8.7,13.2,14,19.4,9.5,7.4,14.9,12.8,18.2,19,15.3,20.2,19.4,30.2,31.8,39.7,2.4,4.1,6.8,6.8,8.7,11.2.7,1.2,1.1,2.6,1.2,4.1.1.9.3,1.8.6,2.8,4.3,11.1,20.4,24.8,30.3,34.4,16.5,16.5,32.6,29.3,52.1,41.7,1.1,2.9,2.1,5.9,3.2,8.9,16.9,48.1,30.1,108.7,25.8,159.7-.6,2.7-1.2,5.2-1.8,7.7h167.2c0-.4,0-.8,0-1.1ZM323.2,251.2c-1,0-2,0-3,0-26.4-.4-40.9-7.4-35.5-22.3,0,.2.1.5.2.7,0-.2.2-.4.2-.7,2.5,12.1,13.8,16.7,30,16.8,20.9.1,50-7.1,79.5-15.2-.2,0-.4.2-.6.3.3,0,.7-.2,1-.3-21.2,10-43.7,20.8-71.8,20.7Z"></path><path fill="#fff" d="M288.5,185.5c0,.3-.1.5-.2.8,0,.1.1.2.2.3,0-.3.1-.6.2-.9,0,0,0-.2-.1-.2Z"></path><path fill="#fff" d="M636.2,81.4c.2.2.3.3.4.5,0,0,0,0,0,0-.1-.1-.3-.3-.4-.4Z"></path><path fill="#194d91" d="M639.9,95c-.1.1-.3.3-.4.4v4c.1.5.3.9.4,1.3v-5.8Z"></path><path fill="#194d91" d="M639.1,96.3c0,1.3.2,2.3.4,3.2v-4c-.2.3-.4.5-.4.8Z"></path><path fill="#294091" d="M315,245.7c-16-.1-27.3-4.5-30.2-16.2-5.1,14.4,9.3,21.2,35.8,21.6.9,0,1.7,0,2.6,0,28,0,49.8-10.5,70.8-20.4-29.4,8-58.2,15.1-78.9,14.9Z"></path><path fill="#294091" d="M284.8,229.6c0-.2-.1-.4-.2-.7-5.4,14.9,9.1,21.9,35.5,22.3,1,0,2,0,3,0-.9,0-1.7,0-2.6,0-26.4-.4-40.9-7.2-35.8-21.6Z"></path><path fill="#294091" d="M394,230.8c.2,0,.4-.2.6-.3-29.5,8.1-58.6,15.3-79.5,15.2,20.7.2,49.5-6.9,78.9-14.9Z"></path><path fill="#294091" d="M638.3,83.9c.3.3.6.6.8.8,0-.4,0-.8-.8-.8Z"></path><path fill="#294091" d="M634.2,112.8c1.7-1.7,3.3-3.7,5-5.4-1.7,1.7-3.3,3.3-5,5.4Z"></path><path fill="#194d91" d="M288.3,185.1c0,0,0,0,0,.1,0-.4.1-.7.2-1.1,0,.3-.2.7-.3,1Z"></path><path fill="#194d91" d="M289.3,182.3c.5-2.9,1-5.8,1.1-8.1-.4,3.3-.9,6.7-1.8,10,0,.4-.1.8-.2,1.1,0,0,0,.2.1.3.3-1.1.5-2.1.7-3.2Z"></path><path fill="#194d91" d="M47.9,11.6l4.5,8.7c2.9,4.5,1.7,7.9,5,12.4,4.5,8.7,13.6,19.4,19,30.2,2.9,2.1,5.4,4.1,8.3,6.2,3.7,4.1,7,8.3,10.3,12.4,4.1,2.9,8.3,6.2,12.8,9.5,2.1,3.3,2.5,3.7,4.5,7,2.1,0,4.5-.4,7,1.7,2.9,2.5,5.4,7.9,6.6,9.5,4.1,2.1,6.2,5.4,10.3,7.4,2.9,4.1,8.7,6.6,11.6,10.7,5.8,4.5,11.6,10.3,17.4,15.3,4.5,6.6,6.2,14,14,13.2,9.5,2.9,12.4,8.7,14.5,14.5v1.2s0,0,0,0v8.3c5,3.7,9.9,5.4,14.5,8.7,11.2.8,16.9,9.1,17.8,20.2,3.7,2.9,7,6.2,10.7,9.1,5.4-.8,11.2,0,16.5,6.2,3.7-1.7,7.9-2.5,13.6-.8,3.7,1.7,6.6,3.3,10.3,5.4,2.5,0,5-.8,7.4-1.2.6-2.3.8-4.5.8-6.5-.1-4.9-1.5-9-2.9-12.9-.3-1.4-.5-2.7-.6-3.9-1-6.5,1.2-11.4,5.9-15.1.1-1.1.3-2.3.5-3.6,0,0,0,0,0-.1,0-.3.2-.6.3-1,.7-4.5,1.7-9.3,1.7-12.6-.1-1.2-.5-2.1-1.2-2.5h.9c-.2-.6-.5-1-.9-1.2h2.1c0,.4-.1.8-.2,1.2h.2c-.6,4.1-1,8.8-1.9,13.3-.2,1.2-.4,2.3-.6,3.5,5.2,9.6,44,9.2,85.2,7.2,7.1-1.7,13.3-6.4,13.6-10.5-.1-.5-.4-1-.8-1.5-8.3,2.5-17.4-2.1-26.4-7.4-29.3-18.2-50-19-69-16.9-3.6.3-9.6,5.2-10.4,8.8.4,1.5,2.1,2.6,5.9,2.7-.9.4-1.7.8-2.6,1,.7.1,1.6.2,2.6.2-5.1,2.4-9.5,2.2-8.7-4.3,0-2.5,1-6.2,3.4-11.4,7.4-11.2,14-29.7,21.9-33.9,7.4-4.1,14-9.5,21.5-14,13.6-7.4,27.7-9.9,47.5-7.4,16.1,0,35.1,7.9,48.3,17.4,2.1,4.8,3.5,9.3,4.4,13.8,1.6,7.1,1.9,14.1,1.4,21.2.8,4.9,1.2,9.8,1.2,14.8,0,8.3-1.2,16.7-5,25.8-2.1,7.9-4.1,15.3-6.2,22.7v9.5c-.8,1.1-1.2,2.4-1.1,3.7.3,1.2,1.1,2.3,2.3,3.4,5,.8,9.5,2.1,14.5,2.9,7.9-3.3,15.7-3.3,22.7,0,6.6-10.7,10.7-17.4,17.4-21.5,2.9-7,9.9-13.2,16.1-17.4,3.7-7,10.7-9.9,16.5-10.7,2.5-6.6,5.4-9.9,13.2-14.9,2.1-4.5,6.2-9.9,10.7-9.9,2.1-4.1,4.5-8.3,7.9-9.5,3.7-3.7,4.5-9.5,9.9-10.3,2.5-1.7,3.3-4.5,5.8-6.2.4-2.1,5.4-3.7,7.4-4.5,3.3-10.3,7.9-15.7,14-13.2,0-2.5,2.1-4.1,2.9-7.4,2.1-2.5,4.1-2.1,5.4-1.2,2.9-1.7,3.3-4.1,6.2-7.9,0-7.9,6.2-18.2,11.6-24,2.9-5.8,5.8-9.9,9.1-14.5,2.9-5.4,6.2-13.6,9.1-19,5.8-9.9,9.5-14.9,14.5-9.9,1.1,1.3,1.5,2.9,1.4,4.7.2,2.6-1,5.9-3.5,9.7-2,7.4-5,15.6-6,22.7,8.8,1.2,12.5,4.5,12.2,11.9,0,.1,0,.3,0,.5.8.8,1.6,1.6,2,2.5.3.3.6.6.8.8.2.2.3.3.5.5V0H40.8c.4,0,.8.4,1.2.4,2.1,3.7,3.7,7.4,5.8,11.2ZM52.4,19.8c-.8-1.4-1.5-2.9-2.3-4.3l-2.3-4.3c.8,1.4,1.5,2.9,2.3,4.3l2.3,4.3Z"></path><path fill="#194d91" d="M416.4,223.5v-9.5c2.1-7.4,4.1-14.9,6.2-22.7,3.7-9.1,5-17.4,5-25.8,0,7.9-1.4,16-5,24.5-2.1,7.9-4.1,15.3-6.2,22.7v9.5c-1.2,1.7-1.6,3.3-1.1,4.9,0-1.3.3-2.5,1.1-3.7Z"></path><path fill="#194d91" d="M288.7,185.8c.2-1.1.4-2.3.6-3.5-.2,1.1-.5,2.2-.7,3.2,0,0,0,.2.1.2Z"></path><path fill="#194d91" d="M285.5,220.8c.1-5.5-1.4-10-2.9-14.2-.2-.9-.4-1.8-.6-2.7,0,1.2.3,2.6.6,3.9,1.4,3.9,2.8,8,2.9,12.9Z"></path><polygon fill="#194d91" points="193.7 171.5 193.7 179.7 193.7 179.7 193.7 171.5 193.7 171.5"></polygon><path fill="#194d91" d="M633.9,36.1c-.2,2.4-1.4,5.2-3.5,8.5-2.1,7.9-5.4,16.5-6.2,24,0,0,.1,0,.2,0,1-7.2,4.1-15.3,6-22.7,2.5-3.8,3.6-7.1,3.5-9.7Z"></path><path fill="#194d91" d="M636.6,80.6c0,.1,0,.3,0,.4,0,0,0,0,0,0,0-.2,0-.3,0-.5Z"></path><path fill="#194d91" d="M425,129.5c1.4,6.9,1.6,13.7,1.3,20.9,0,.1,0,.2,0,.4.5-7.1.2-14.1-1.4-21.2Z"></path><path fill="#194d91" d="M286.7,169.4c-1,0-1.8,0-2.6-.2-3.4,1-6.2.1-6.2-4.1-.8,6.5,3.7,6.7,8.7,4.3Z"></path><path fill="#194d91" d="M290,169h-.9c.7.4,1,1.3,1.2,2.5,0-1,0-1.9-.3-2.5Z"></path><path fill="#194d91" d="M289.3,182.3c.9-4.5,1.3-9.2,1.9-13.3h-.2c-.2,1.7-.4,3.4-.7,5.2-.1,2.3-.6,5.2-1.1,8.1Z"></path><path fill="#194d91" d="M291.2,156.6c19-2.1,39.7-1.2,69,16.9,9.1,5.4,18.2,9.9,26.4,7.4.4.5.6,1,.8,1.5,0-.9-.2-1.9-.8-2.7-8.3,2.5-17.4-2.5-26.4-7.4-29.3-18.2-50-19-69-16.9-4.1,0-11.4,6.3-10.4,10.1.8-3.7,6.8-8.6,10.4-8.8Z"></path><path fill="#194d91" d="M50.1,15.5c.7,1.4,1.4,2.9,2.3,4.3l-2.3-4.3Z"></path><path fill="#194d91" d="M50.1,15.5c-.7-1.4-1.4-2.9-2.3-4.3l2.3,4.3Z"></path><path fill="#194d91" d="M639.5,108.3c-1.7,1.7-3.3,3.3-5,5.4-2.5,2.5-5,5-6.6,7.4-3.3,6.2-13.6,7-19,13.2,2.1,6.6-2.1,14-9.1,17.4,4.5,9.5-3.3,15.7-15.7,24.8-.4,7.9-12.8,20.7-21.9,32.2-1.2,7.4-4.5,12.4-11.2,19,0,13.2-14,12-20.2,18.6-2.1,14-14,27.3-32.2,40.5-8.3,14.9-20.2,20.2-32.6,28.5.8,3.3-1.2,10.7-2.9,18.6-10.3,47.9-26.4,84.3-30.2,139.7,0,2.1-2.1,2.9-2.1,6.2s0,.2,0,.3h209.1V106.7c-.1.1-.3.2-.5.4v1.2Z"></path><path fill="#194d91" d="M432.9,473.5c3.7-55.4,19.8-91.7,30.2-139.7,1.7-7.9,3.7-15.3,2.9-18.6,12.4-8.3,24.4-13.6,32.6-28.5,18.2-13.2,30.2-26.4,32.2-40.5,6.2-6.6,20.2-5.4,20.2-18.6,6.6-6.6,9.9-11.6,11.2-19,9.1-11.6,21.5-24.4,21.9-32.2,12.4-9.1,20.2-15.3,15.7-24.8,7-3.3,11.2-10.7,9.1-17.4,5.4-6.2,15.7-7,19-13.2,1.7-2.5,4.1-5,6.6-7.4,1.7-2.1,3.3-3.7,5-5.4v-1.2c-.2.1-.3.2-.4.3h0c-1.7,2.1-3.3,3.7-5,5.4-2.5,2.5-4.5,5.4-6.6,7.4-3.3,6.2-13.6,6.6-19,13.2,2.1,7-2.1,14-9.1,17.4,4.5,9.5-3.7,15.7-15.7,24.8-.8,7.9-13.2,20.7-21.9,32.2-1.2,7.4-4.5,12.4-11.2,19,0,13.2-14.5,12-20.2,18.6-2.1,14-14,26.9-32.2,40.5-8.3,14.9-20.2,20.2-32.6,28.5.8,3.3-1.2,10.7-2.9,18.6-10.3,47.5-26.4,84.3-30.2,139.7,0,2.1-2.1,4.1-2.1,6.2s0,.7,0,1.1h.3c0-.1,0-.2,0-.3,0-3.3,2.1-4.1,2.1-6.2ZM634.6,113.2c-2.5,2.5-4.5,5-6.6,7.4,1.7-2.5,4.1-5.4,6.6-7.4Z"></path><path fill="#194d91" d="M628,120.6c2.1-2.5,4.1-5,6.6-7.4-2.5,2.1-5,5-6.6,7.4Z"></path><path fill="#d82a27" d="M239.4,312.6c-.9-2.6-1.8-5.2-2.8-7.7-19.8-12.4-35.5-25.6-52.1-41.7-10.3-9.9-27.1-24.6-30.8-35.6-.5-1.4-.9-2.7-1.1-4-.1-1.1-.4-2-.8-2.9-2-3.8-6.1-6.5-8.3-9.9-12-9.5-16.5-19.8-31.8-39.7-3.3-6.2-8.7-11.6-18.2-19-5-6.2-8.7-13.2-14-19.4-.8-1.2-2.9-2.9-3.7-3.7-1.7-1.2-3.3-5.8-5.4-8.7-3.4-3.7-5.4-4.4-5.3-7.7-.3-1.3-.2-3,.4-5.9-.1-.5-.3-1-.4-1.4-1.3-3.5-3.4-6.4-8.7-6.4-4.5,1.7-8.7-4.1-11.2-7.4-1.3-3.8-2.4-6.7-3.5-9.6-.7-1.9-1.4-3.8-2.2-5.9-.3-.7-.6-1.5-.8-2.2-1.2,5.4-4.1,9.9-8.3,8.3-3.5-1.6-4.7-3.8-5.3-6.5-.8-2.8-.6-6.3-1.9-10.5,0-.2-.2-.5-.2-.7,0-.2-.1-.4-.2-.6,0-.2-.1-.4-.2-.6-2.5-7-4.5-5.4,3.7-16.1,5.4-5,8.7-8.7,14.9-8.7l-.4-.4c0-5-2.5-7.9-2.5-12.4-1.2-5.4-2.9-10.3-4.1-15.7,0-3.7.4-7,1.2-9.1h1.1c.2-.2.3-.3.5-.4H.4v480h262.5c.6-2.8,1.2-5.6,2-8.6,4.3-50.6-8.6-110.6-25.3-158.8Z"></path><path fill="#d82a27" d="M30.5,81.8c4.1,1.7,7-2.9,8.3-8.3.3.8.6,1.5.8,2.2-.4-1.1-.8-2.2-1.3-3.5-1.2,5.4-4.5,9.9-8.3,8.3-3-1.3-4.3-3.1-4.9-5.3.6,2.8,1.8,5,5.3,6.5Z"></path><path fill="#d82a27" d="M34.2,9.5c1.2,5.4,2.9,10.3,4.1,15.7,0,4.5,2.5,7.4,2.5,12.4l.4.4c0-5-2.5-7.9-2.5-12.8-1.2-5-2.9-10.3-4.1-15.3,0-4.1.3-7.9,2-9.5h-1.1c-.8,2.1-1.2,5.4-1.2,9.1Z"></path><path fill="#d82a27" d="M23.3,64.8c-.1-.5-.3-.9-.4-1.4,0,.2.1.4.2.6,0,.2.2.5.2.7Z"></path><path fill="#d82a27" d="M70.6,120.2c2.1,2.9,3.7,7.4,5.4,8.7.8.8,2.9,2.5,3.7,3.7,5.4,6.2,9.1,13.2,14,19.4,9.5,7.4,14.9,12.8,18.2,19,15.3,19.8,19.8,30.2,31.8,39.7,2.2,3.4,6.2,6.1,8.3,9.9-1.9-4.3-6.3-7-8.7-11.2-12.4-9.5-16.5-19.4-31.8-39.7-3.3-6.2-8.7-11.6-18.2-19-5.4-6.2-9.1-13.2-14-19.4l-3.7-3.7c-1.7-1.2-3.3-5.8-5.4-8.7-2.6-3.4-4.4-4.3-4.9-6.5,0,3.3,2,4,5.3,7.7Z"></path><path fill="#d82a27" d="M184.6,263.2c16.5,16.1,32.2,29.3,52.1,41.7.9,2.5,1.8,5.1,2.8,7.7-1-3-2.1-6-3.2-8.9-19.4-12.4-35.5-25.2-52.1-41.7-9.9-9.5-26-23.3-30.3-34.4,3.6,11,20.5,25.7,30.8,35.6Z"></path><path fill="#d82a27" d="M56.5,98.7c5.3,0,7.4,2.9,8.7,6.4-1.2-4-3.2-7.6-9.1-7.6-4.1,1.7-8.3-4.1-11.2-7.4-1.2-3.3-2.1-5.9-3.1-8.4,1.1,2.9,2.2,5.9,3.5,9.6,2.5,3.3,6.6,9.1,11.2,7.4Z"></path></svg>